<svg xmlns="http://www.w3.org/2000/svg" width="170" height="51.119" viewBox="0 0 170 51.119"><g transform="translate(65.545 17.935)"><path d="M2415.076,1545.983l-4.6-11.466h-2.935l6.318,15.248h2.448l6.317-15.248h-2.934Z" transform="translate(-2407.544 -1534.517)" fill="rgba(45,45,45,0.4)"/><path d="M2835.171,1543.4h7.279v-2.643h-7.279v-3.6h7.888v-2.643h-10.613v15.248h10.735v-2.643h-8.01Z" transform="translate(-2811.456 -1534.517)" fill="rgba(45,45,45,0.4)"/><path d="M3200.648,1544.871l-7.8-10.354H3190.5v15.248h2.725v-10.372l7.8,10.372h2.348v-15.248h-2.724Z" transform="translate(-3151.824 -1534.517)" fill="rgba(45,45,45,0.4)"/><rect width="2.724" height="15.248" transform="translate(59.355 0)" fill="rgba(45,45,45,0.4)"/><path d="M3784.5,1534.517l-6.644,15.248h2.962l1.464-3.436h6.993l1.464,3.436h2.94l-6.622-15.248Zm-1.116,9.21,2.385-5.631,2.4,5.631Z" transform="translate(-3710.165 -1534.517)" fill="rgba(45,45,45,0.4)"/><path d="M4217.723,1534.517l-5.6,8.377-5.6-8.377h-2.244v15.248H4207v-9.83l4.323,6.476h1.6l4.323-6.476v9.83h2.725v-15.248Z" transform="translate(-4115.512 -1534.517)" fill="rgba(45,45,45,0.4)"/></g><path d="M1128.589,1182.323a11.125,11.125,0,0,0-4.83-2.841,11.068,11.068,0,0,0-17.336-5.609,11.153,11.153,0,0,0-17.665,5.673,11.069,11.069,0,0,0-5.607,17.334,11.145,11.145,0,0,0,5.671,17.662,11.069,11.069,0,0,0,10.515,7.892h.09a10.991,10.991,0,0,0,6.732-2.283,11.062,11.062,0,0,0,6.937,2.423h.087a83.884,83.884,0,0,1,15.287-10.869,11.069,11.069,0,0,0,.958-14.559A11.168,11.168,0,0,0,1128.589,1182.323Zm-1.04,12.807-5.667-5.667a10.982,10.982,0,0,0,2.344-6.92,8.434,8.434,0,0,1,3.324,12.588Zm-6.051,17.052a8.468,8.468,0,0,1-.854.043,8.286,8.286,0,0,1-5.8-2.346q-.029-.028-.06-.055l-.055-.051-.008-.007.018.017h0a21.428,21.428,0,0,1-6.728-11.049,21.424,21.424,0,0,1,10.965,6.642c.025.031.049.059.072.085l.062.07h0c.018.02.036.039.055.058l.019.018.043.04.012.01A8.417,8.417,0,0,1,1121.5,1212.182Zm-15.205,4.359-5.652-5.652a24.166,24.166,0,0,0,5.65-8.585,24.163,24.163,0,0,0,5.65,8.589Zm-8.39-6.817-.028.025-.088.077c-.026.023-.051.047-.076.072l-.006.006-.045.049-.01.011a8.378,8.378,0,0,1-5.773,2.288q-.381,0-.76-.034a8.327,8.327,0,0,1,2.222-6.564l.01-.009.051-.047.017-.017c.021-.021.04-.042.06-.063l.033-.037.014-.015h0l.031-.035.026-.029a21.417,21.417,0,0,1,10.989-6.666A21.44,21.44,0,0,1,1097.9,1209.724Zm-6.821-27.883a8.4,8.4,0,0,1,.855-.044,8.293,8.293,0,0,1,5.9,2.447l.006.005q.029.029.059.055a21.417,21.417,0,0,1,6.666,10.986,21.389,21.389,0,0,1-10.979-6.652l-.01-.011,0,0c-.017-.02-.035-.038-.053-.057l-.005-.006A8.418,8.418,0,0,1,1091.082,1181.841Zm15.211-4.129,5.534,5.538a24.119,24.119,0,0,0-5.536,8.472,24.144,24.144,0,0,0-5.537-8.472Zm8.356,6.618h0c.033-.027.066-.056.1-.087a8.378,8.378,0,0,1,5.964-2.471c.252,0,.5.011.755.034a8.3,8.3,0,0,1-2.4,6.75,1.4,1.4,0,0,0-.1.118,21.409,21.409,0,0,1-10.943,6.614A21.391,21.391,0,0,1,1114.649,1184.33Zm-22.122,7.148a24.118,24.118,0,0,0,8.474,5.536,24.145,24.145,0,0,0-8.585,5.65l-5.537-5.537Zm27.642,11.188a24.15,24.15,0,0,0-8.589-5.653,24.128,24.128,0,0,0,8.475-5.535l5.651,5.651Zm-1.106-25.913a8.284,8.284,0,0,1,1.631,2.3,11.066,11.066,0,0,0-6.851,2.365l-5.55-5.553A8.368,8.368,0,0,1,1119.062,1176.752Zm-14.653-1-5.667,5.667a10.977,10.977,0,0,0-6.8-2.34h-.119a8.437,8.437,0,0,1,12.591-3.329Zm-18.377,8.49a8.351,8.351,0,0,1,2.3-1.629,11.118,11.118,0,0,0,2.366,6.85l-5.55,5.549a8.35,8.35,0,0,1,.883-10.77Zm-1.094,14.784,5.664,5.664a11.031,11.031,0,0,0-2.244,6.792,8.428,8.428,0,0,1-3.42-12.455Zm8.582,18.245a8.349,8.349,0,0,1-1.63-2.3,11.075,11.075,0,0,0,6.724-2.265l5.543,5.544A8.4,8.4,0,0,1,1093.52,1217.273Zm14.79,1.092,5.662-5.662a10.983,10.983,0,0,0,6.671,2.239l.124,0a8.378,8.378,0,0,1-1.706,2.446A8.475,8.475,0,0,1,1108.31,1218.365Zm18.239-8.581a8.333,8.333,0,0,1-2.3,1.63,11.132,11.132,0,0,0-2.266-6.719l5.545-5.545A8.4,8.4,0,0,1,1126.549,1209.784Z" transform="translate(-1080.736 -1171.456)" fill="rgba(45,45,45,0.4)"/></svg>