<svg xmlns="http://www.w3.org/2000/svg" width="104.925" height="101.175" viewBox="0 0 104.925 101.175"><g transform="translate(0 88.378)"><path d="M259.4,436.144l-.981-2.278H254l-.981,2.278h-2.5l4.557-10.548h2.278l4.557,10.548Zm-3.184-7.409-1.328,3.063h2.641Z" transform="translate(-250.509 -425.355)" fill="rgba(45,45,45,0.4)"/><path d="M308.412,430.26a5.38,5.38,0,0,1-.838,2.957,5.171,5.171,0,0,1-2.256,1.962,1.084,1.084,0,0,0,.43.385,1.272,1.272,0,0,0,.611.159,2,2,0,0,0,.619-.1,1.668,1.668,0,0,0,.483-.234,2.2,2.2,0,0,0,.558-.619l1.223,1.464A4.281,4.281,0,0,1,306,437.609a3.561,3.561,0,0,1-1.781-.5,3.343,3.343,0,0,1-1.343-1.4,5.419,5.419,0,0,1-3.939-1.562,5.52,5.52,0,0,1,0-7.772,5.748,5.748,0,0,1,7.877,0A5.212,5.212,0,0,1,308.412,430.26Zm-2.4.007a3.448,3.448,0,0,0-.906-2.406,2.985,2.985,0,0,0-4.452,0,3.643,3.643,0,0,0,0,4.806,3,3,0,0,0,4.452,0A3.422,3.422,0,0,0,306.013,430.268Z" transform="translate(-282.922 -424.813)" fill="rgba(45,45,45,0.4)"/><path d="M352.1,433.421a1.927,1.927,0,0,0,1.585.732,1.906,1.906,0,0,0,1.577-.732,3.133,3.133,0,0,0,.581-2V425.6h2.354v5.9a4.685,4.685,0,0,1-1.268,3.523,4.894,4.894,0,0,1-6.5-.008,4.673,4.673,0,0,1-1.275-3.516v-5.9h2.354v5.825A3.107,3.107,0,0,0,352.1,433.421Z" transform="translate(-318.79 -425.355)" fill="rgba(45,45,45,0.4)"/><path d="M399.811,436.144l-.981-2.278h-4.421l-.981,2.278h-2.5l4.557-10.548h2.278l4.557,10.548Zm-3.184-7.409L395.3,431.8h2.641Z" transform="translate(-347.701 -425.355)" fill="rgba(45,45,45,0.4)"/><path d="M441.711,427.634v8.511h-2.354v-8.511H436.37V425.6h8.33v2.037Z" transform="translate(-379.159 -425.356)" fill="rgba(45,45,45,0.4)"/><path d="M487.379,429.1a3.106,3.106,0,0,1-2.007,3.275l2.671,3.773h-2.9l-2.339-3.365h-1.63v3.365h-2.354V425.6h4a5.734,5.734,0,0,1,3.508.83A3.2,3.2,0,0,1,487.379,429.1Zm-2.837,1.253a1.6,1.6,0,0,0,.438-1.245,1.334,1.334,0,0,0-.453-1.17,2.9,2.9,0,0,0-1.585-.317h-1.765v3.124h1.72A2.529,2.529,0,0,0,484.542,430.35Z" transform="translate(-408.545 -425.356)" fill="rgba(45,45,45,0.4)"/><path d="M531.873,425.6v2.1h-5.252v2.173h4.724v2.007h-4.724v2.188h5.417v2.082h-7.771V425.6Z" transform="translate(-440.001 -425.356)" fill="rgba(45,45,45,0.4)"/><path d="M573.739,425.6v2.1h-5.251v2.173h4.723v2.007h-4.723v2.188h5.417v2.082h-7.772V425.6Z" transform="translate(-468.98 -425.356)" fill="rgba(45,45,45,0.4)"/></g><g transform="translate(13.163)"><path d="M375.867,319.8c-5.517-2.906-9.51.516-13.271,3.123a9.971,9.971,0,0,1-11.307,0l-2.6-1.805a13.015,13.015,0,0,0-14.761,0l-2.6,1.805a9.972,9.972,0,0,1-11.308,0c-3.742-2.594-7.26-5.723-13.083-3.3a1.515,1.515,0,0,0,1.166,2.8c4.162-1.736,6.515.442,10.191,2.99a13.014,13.014,0,0,0,14.761,0l2.6-1.8a9.972,9.972,0,0,1,11.308,0c2.913,2.019,5.365,4.1,9.985,4.1,8.809,0,11.157-8.575,17.512-5.227a1.515,1.515,0,1,0,1.412-2.682Z" transform="translate(-302.079 -262.976)" fill="rgba(45,45,45,0.4)"/><path d="M383.444,351.058c-.19.153-.387.325-.615.525a13.03,13.03,0,0,1-9.78,3.625c-9.367-.252-11.824-9.277-22.8-2.661a20.52,20.52,0,0,1-8.427,2.661c-6.21.17-8.966-3-10.395-4.15a1.515,1.515,0,1,0-1.9,2.363c.14.112.313.264.515.441a15.979,15.979,0,0,0,11.859,4.376,23.536,23.536,0,0,0,9.91-3.1,8.958,8.958,0,0,1,11.243,0,23.543,23.543,0,0,0,9.91,3.1c6.834.183,9.917-2.847,12.373-4.816a1.515,1.515,0,0,0-1.9-2.364Z" transform="translate(-317.978 -284.739)" fill="rgba(45,45,45,0.4)"/><path d="M411.255,380.73c-4.494-3.116-7.834-3.444-12.786,0a1.515,1.515,0,1,0,1.731,2.487c3.812-2.655,5.83-2.423,9.329,0a1.515,1.515,0,1,0,1.726-2.49Z" transform="translate(-365.638 -304.217)" fill="rgba(45,45,45,0.4)"/><path d="M307.107,191.276c2.8,1.942,5.324,4.1,10.18,4.1,5.775,0,11.339-3.832,11.916-10.574.012-.175.007-8.9.007-9.075,0-4.751-5.823-9.126-9.529-13.291-.312-3.515-.7-6.5-1.092-9.175.214-.2-.208.387,6.806-10.188a1.515,1.515,0,0,0-2.526-1.675l-4.936,7.442c-.214-1.452-.414-2.874-.586-4.334a1.515,1.515,0,0,0-3.01.355c.552,4.686,1.374,8.931,2.012,14.706-3.939-3.28-5.181-4.507-10.144-8.287a1.515,1.515,0,0,0-1.836,2.411c2.065,1.572,3.475,2.7,4.707,3.713l-7.332-.4a1.515,1.515,0,0,0-.164,3.026l11.342.616c1.121.947,2.447,2.054,4.237,3.509,3.082,3.547,8.022,7.5,8.891,10.682a14.861,14.861,0,0,0-8.848-3.879,31.443,31.443,0,0,0-5.1-5.933,1.515,1.515,0,1,0-2,2.277,29.84,29.84,0,0,1,3.227,3.452,33.318,33.318,0,0,0-4.511.359l-9.381-7.8a1.515,1.515,0,0,0-1.937,2.33l6.145,5.109h-8.4a1.515,1.515,0,1,0,0,3.03h8.926l-10.205,6.492a1.515,1.515,0,0,0,1.627,2.557l13.722-8.731a28.217,28.217,0,0,1,8.875.075c-2.887,2.737-6.18,6.38-6.353,6.572a1.515,1.515,0,0,0,2.25,2.03c.048-.053,4.434-4.905,7.385-7.5,4.984,2.572,4.7,6.538,4.7,9.325-.342,5.534-5.5,7.183-6.086,7.353a10.448,10.448,0,0,1-8.656-1.372l-2.6-1.805a13.688,13.688,0,0,0-13.79-.621,1.515,1.515,0,0,0,1.4,2.688A10.731,10.731,0,0,1,307.107,191.276Z" transform="translate(-293.272 -139.792)" fill="rgba(45,45,45,0.4)"/><path d="M438.757,176.148a1.515,1.515,0,0,0,2.056-2.227,31.792,31.792,0,0,0-11.051-7.173l6.1-1.1a1.516,1.516,0,0,0-.539-2.983c-13.131,2.373-12.384,2.222-12.6,2.3a16.331,16.331,0,0,0-2.717-.01c2.158-2.178,4.154-4.17,5.872-5.874.217.036-.282.021,7.573.048a1.515,1.515,0,1,0,.01-3.03l-4.548-.016c1.876-1.845,3-2.938,3.032-2.965a1.515,1.515,0,1,0-2.108-2.177c-.039.038-2.348,2.275-5.879,5.775.4-3.5.592-5.9,1.236-10.539a1.515,1.515,0,0,0-3-.418c-.863,6.211-.944,8.6-1.712,14.422-1.458,1.459-3.027,3.04-4.663,4.7l-.666-9.5a1.515,1.515,0,0,0-3.023.212c.873,12.45.81,11.665.845,11.838a16.772,16.772,0,0,0-4.141,3.843c-.782-2.731-1.769-3.678-3.316-5.563-1.07-1.3-2.444-2.977-4.037-4.885l1.466-3.464c5.464-4.6,13.514-11.571,15.883-13.627a1.515,1.515,0,0,0-1.986-2.289c-1.757,1.524-6.641,5.756-11.269,9.71l4.623-10.916a1.515,1.515,0,0,0-2.791-1.182l-3.52,8.312c-.436-3.068-.874-5.643-1.283-8.385a1.515,1.515,0,1,0-3,.448c.624,4.173,1.309,7.954,1.932,13.483l-2.246,5.305q-.851-1-1.755-2.058l-.938-7.776a1.515,1.515,0,1,0-3.009.363l1.049,8.691c4.82,5.6,8.037,9.6,9.923,11.874.558.674,2.343,3.326,1.831,9.156a32.1,32.1,0,0,0-.04,3.8,11.549,11.549,0,0,0,7.141,10.508,13.149,13.149,0,0,0,3.649.508c4.825,0,7.329-2.129,10.179-4.1a9.2,9.2,0,0,1,10.829.037,1.515,1.515,0,0,0,1.727-2.491,12.28,12.28,0,0,0-14.282-.037l-2.6,1.8a10.443,10.443,0,0,1-8.655,1.372,8.534,8.534,0,0,1-4.955-7.729c-.289-6.67,1.261-8.9,3.789-11.06a12.174,12.174,0,0,1,7.571-3.127l6.255,9.778a1.515,1.515,0,1,0,2.553-1.633l-4.984-7.79q.67.144,1.362.344A28.923,28.923,0,0,1,438.757,176.148Z" transform="translate(-362.7 -137.697)" fill="rgba(45,45,45,0.4)"/></g></svg>