<svg xmlns="http://www.w3.org/2000/svg" width="93.106" height="90.487" viewBox="0 0 93.106 90.487"><path d="M1994.584,1319.789a12.7,12.7,0,0,0-2.667.29l-3.448-8.334h0l-10.405-25.156a1.964,1.964,0,0,0-3.629,0l-11.355,27.453h0l-2.612,6.312a12.706,12.706,0,0,0-8.24,24.027,1.519,1.519,0,0,0,1.94-.841l7.9-19.088c.113.076.226.155.335.235l24.691,18.061a12.7,12.7,0,1,0,7.492-22.96Zm-42.62,21.122a9.666,9.666,0,0,1,7.336-17.73Zm11.281-19.311,3.741-9.047h0l2.937-7.1,12.438,30.069-18.165-13.287Q1963.732,1321.894,1963.246,1321.6Zm25.643,18.695-1.808-1.323-15.511-37.5,4.681-11.317,9.576,23.152h0l11.735,28.368a9.635,9.635,0,0,1-8.673-1.383Zm11.386-.013-7.167-17.328a9.783,9.783,0,0,1,1.491-.124,9.65,9.65,0,0,1,5.677,17.452Z" transform="translate(-1929.66 -1285.376)" fill="rgba(45,45,45,0.4)"/><g transform="translate(0 74.777)"><path d="M1698.847,2599.315l-6.845,15.71h2.409l1.576-3.7h8.005l1.577,3.7h2.386l-6.823-15.71Zm1.133,2.585c.021.051.043.1.066.154l3.062,7.181h-6.236l3.04-7.179C1699.936,2602,1699.958,2601.951,1699.979,2601.9Z" transform="translate(-1692.002 -2599.315)" fill="rgba(45,45,45,0.4)"/><path d="M2081.45,2599.315h-2.22v15.71h10.717v-2.132h-8.5Z" transform="translate(-2057.193 -2599.315)" fill="rgba(45,45,45,0.4)"/><path d="M2389.028,2600.383a8.711,8.711,0,0,0-4.685-1.067h-5.424v15.71h2.219v-5.432h3.205a8.709,8.709,0,0,0,4.685-1.068,5.131,5.131,0,0,0,0-8.143Zm-.232,4.071c0,2.08-1.346,3.007-4.365,3.007h-3.292v-6.014h3.292a6.385,6.385,0,0,1,3.127.6A2.532,2.532,0,0,1,2388.8,2604.454Z" transform="translate(-2339.826 -2599.315)" fill="rgba(45,45,45,0.4)"/><path d="M2721.073,2606.082h-8.708v-6.767h-2.219v15.71h2.219v-6.811h8.708v6.811h2.22v-15.71h-2.22Z" transform="translate(-2652.202 -2599.315)" fill="rgba(45,45,45,0.4)"/><path d="M3056.8,2599.315h-2.285l-6.846,15.71h2.409l1.576-3.7h8.006l1.576,3.7h2.386Zm-1.154,2.585c.021.051.043.1.067.154l3.062,7.181h-6.236l3.04-7.179C3055.6,2602,3055.625,2601.951,3055.646,2601.9Z" transform="translate(-2970.516 -2599.315)" fill="rgba(45,45,45,0.4)"/></g></svg>