<svg xmlns="http://www.w3.org/2000/svg" width="170" height="50.286" viewBox="0 0 170 50.286"><path d="M932.839,1790.334a49.251,49.251,0,0,1-5.9,3.78.212.212,0,0,1-.2,0c-1.359-.717-16.346-8.88-19.211-21.584a.212.212,0,0,1,.393-.149c2.048,3.664,6.665,6.34,9.968,8.117,2.791,1.5,6.04,2.669,8.949,4.272a15.985,15.985,0,0,1,6.052,5.279A.213.213,0,0,1,932.839,1790.334Z" transform="translate(-907.085 -1743.852)" fill="rgba(45,45,45,0.4)"/><path d="M938.791,1244.245v-6.07a.473.473,0,0,0-.473-.473H923.8a.776.776,0,0,0-.71.543l-1.011,3.736a.776.776,0,0,1-.71.543h-6.6v-1.931a11.906,11.906,0,0,0,4.261-.8,3.35,3.35,0,0,0,2.092-1.937.117.117,0,0,0-.113-.151h-8.811c-1.8,0-3.61.489-4.576,2.131-1.03,1.751-.97,4.151-.876,6.108a12.217,12.217,0,0,1-2.167-7.914.293.293,0,0,0-.291-.325H899.75a.467.467,0,0,0-.467.467v1.2c.259,4.213,2.612,15.34,19.754,20.488,14.455,4.34,16.6,11,17.022,12.165a.074.074,0,0,0,.134.009c4-7.649-4.332-13.158-4.332-13.158a15.06,15.06,0,0,1,6.272,2.116.441.441,0,0,0,.658-.383v-8.487a.776.776,0,0,0-.965-.753c-.717.18-1.6.355-1.747.385-2.1.413-4.506.593-6.484-.464a3.3,3.3,0,0,1-.975-5.222,6.686,6.686,0,0,1,5.438-1.859,23.512,23.512,0,0,1,3.918.671A.646.646,0,0,0,938.791,1244.245Z" transform="translate(-899.283 -1237.701)" fill="rgba(45,45,45,0.4)"/><path d="M929.232,1541.933a.212.212,0,0,1-.32-.006,35.449,35.449,0,0,0-9.873-7.784,40.312,40.312,0,0,0-4.261-2.02c-9.225-3.73-15.028-7.618-15.492-17.974v-.331a.212.212,0,0,1,.384-.125c3.381,4.627,7.692,7.331,12.926,9.929,2.141,1.062,4.315,1.931,6.444,2.831,3.516,1.487,6.908,3.059,9.82,5.731a6.469,6.469,0,0,1,.373,9.749Z" transform="translate(-899.285 -1498.938)" fill="rgba(45,45,45,0.4)"/><g transform="translate(60 15.183)"><path d="M2031.675,1539.805v3.732h4.75v3.732h-4.75v7.464h-3.732v-18.66h9.317v3.732h-5.585Z" transform="translate(-2027.943 -1535.395)" fill="rgba(45,45,45,0.4)"/><path d="M2357.343,1548.235v-12.162h3.732v12.135c0,3.915,6.055,3.915,6.055,0v-12.135h3.706v12.162C2370.836,1557.108,2357.343,1557.108,2357.343,1548.235Z" transform="translate(-2339.832 -1535.395)" fill="rgba(45,45,45,0.4)"/><path d="M2780.628,1551.934c-12.318,0-12.944-18.451,0-18.921a12.58,12.58,0,0,1,4.358.679l-.444,3.784a8.838,8.838,0,0,0-3.915-.679c-7.542.261-7.2,11.4,0,11.4a7.068,7.068,0,0,0,1.044-.1v-5.611h3.784v8.195A9.712,9.712,0,0,1,2780.628,1551.934Z" transform="translate(-2731.643 -1532.491)" fill="rgba(45,45,45,0.4)"/><path d="M3215.455,1554.734v-18.66h3.732v18.66Z" transform="translate(-3152.326 -1535.395)" fill="rgba(45,45,45,0.4)"/><path d="M3439.307,1523.31h.392l7.855,19.339h-4.2l-.757-2.01h-6.185l-.731,2.01h-4.228Zm1.905,13.832-1.7-4.854-1.749,4.854Z" transform="translate(-3356.84 -1523.31)" fill="rgba(45,45,45,0.4)"/><path d="M3856.811,1555.2v-14.928h-4.645v-3.706h13.023v3.706h-4.646V1555.2Z" transform="translate(-3755.189 -1535.86)" fill="rgba(45,45,45,0.4)"/></g></svg>